<mxfile host="app.diagrams.net" modified="2020-09-19T07:06:21.085Z" agent="5.0 (Windows NT 10.0; Win64; x64) AppleWebKit/537.36 (KHTML, like Gecko) Chrome/85.0.4183.102 Safari/537.36 Edg/85.0.564.51" etag="zYzmMIsBg0cWIrtU0oB4" version="13.7.3" type="github">
  <diagram id="kgpKYQtTHZ0yAKxKKP6v" name="Page-1">
    <mxGraphModel dx="813" dy="475" grid="1" gridSize="10" guides="1" tooltips="1" connect="1" arrows="1" fold="1" page="1" pageScale="1" pageWidth="850" pageHeight="1100" math="0" shadow="0">
      <root>
        <mxCell id="0" />
        <mxCell id="1" parent="0" />
        <mxCell id="3nuBFxr9cyL0pnOWT2aG-1" value="Sensor Module" style="shape=umlLifeline;perimeter=lifelinePerimeter;container=1;collapsible=0;recursiveResize=0;rounded=0;shadow=0;strokeWidth=1;" parent="1" vertex="1">
          <mxGeometry x="350" y="90" width="100" height="400" as="geometry" />
        </mxCell>
        <mxCell id="3nuBFxr9cyL0pnOWT2aG-2" value="" style="points=[];perimeter=orthogonalPerimeter;rounded=0;shadow=0;strokeWidth=1;" parent="3nuBFxr9cyL0pnOWT2aG-1" vertex="1">
          <mxGeometry x="45" y="80" width="10" height="300" as="geometry" />
        </mxCell>
        <mxCell id="3nuBFxr9cyL0pnOWT2aG-3" value="getData" style="verticalAlign=bottom;startArrow=oval;endArrow=block;startSize=8;shadow=0;strokeWidth=1;entryX=0.171;entryY=0.974;entryDx=0;entryDy=0;entryPerimeter=0;" parent="3nuBFxr9cyL0pnOWT2aG-1" target="3nuBFxr9cyL0pnOWT2aG-2" edge="1">
          <mxGeometry x="0.3237" y="2" relative="1" as="geometry">
            <mxPoint x="-180" y="380" as="sourcePoint" />
            <mxPoint x="-85" y="71" as="targetPoint" />
            <Array as="points" />
            <mxPoint as="offset" />
          </mxGeometry>
        </mxCell>
        <mxCell id="3nuBFxr9cyL0pnOWT2aG-5" value="Communications" style="shape=umlLifeline;perimeter=lifelinePerimeter;container=1;collapsible=0;recursiveResize=0;rounded=0;shadow=0;strokeWidth=1;" parent="1" vertex="1">
          <mxGeometry x="670" y="90" width="100" height="300" as="geometry" />
        </mxCell>
        <mxCell id="3nuBFxr9cyL0pnOWT2aG-6" value="" style="points=[];perimeter=orthogonalPerimeter;rounded=0;shadow=0;strokeWidth=1;" parent="3nuBFxr9cyL0pnOWT2aG-5" vertex="1">
          <mxGeometry x="45" y="80" width="10" height="160" as="geometry" />
        </mxCell>
        <mxCell id="3nuBFxr9cyL0pnOWT2aG-7" value="return" style="verticalAlign=bottom;endArrow=open;dashed=1;endSize=8;shadow=0;strokeWidth=1;" parent="1" source="3nuBFxr9cyL0pnOWT2aG-6" edge="1">
          <mxGeometry x="0.3927" relative="1" as="geometry">
            <mxPoint x="406.25" y="200" as="targetPoint" />
            <Array as="points">
              <mxPoint x="650" y="200" />
              <mxPoint x="580" y="200" />
            </Array>
            <mxPoint as="offset" />
          </mxGeometry>
        </mxCell>
        <mxCell id="3nuBFxr9cyL0pnOWT2aG-8" value="getSharedData()" style="verticalAlign=bottom;endArrow=block;entryX=0.171;entryY=0.026;shadow=0;strokeWidth=1;entryDx=0;entryDy=0;entryPerimeter=0;" parent="1" target="3nuBFxr9cyL0pnOWT2aG-6" edge="1">
          <mxGeometry x="-0.3879" y="1" relative="1" as="geometry">
            <mxPoint x="405" y="174" as="sourcePoint" />
            <mxPoint as="offset" />
          </mxGeometry>
        </mxCell>
        <mxCell id="bKLCHmG1R05d96KP2sI8-3" value="Sensor" style="shape=umlLifeline;perimeter=lifelinePerimeter;container=1;collapsible=0;recursiveResize=0;rounded=0;shadow=0;strokeWidth=1;" vertex="1" parent="1">
          <mxGeometry x="220" y="90" width="100" height="400" as="geometry" />
        </mxCell>
        <mxCell id="bKLCHmG1R05d96KP2sI8-4" value="" style="points=[];perimeter=orthogonalPerimeter;rounded=0;shadow=0;strokeWidth=1;" vertex="1" parent="bKLCHmG1R05d96KP2sI8-3">
          <mxGeometry x="45" y="80" width="10" height="280" as="geometry" />
        </mxCell>
        <mxCell id="bKLCHmG1R05d96KP2sI8-8" value="Storage Device" style="shape=umlLifeline;perimeter=lifelinePerimeter;container=1;collapsible=0;recursiveResize=0;rounded=0;shadow=0;strokeWidth=1;" vertex="1" parent="1">
          <mxGeometry x="500" y="90" width="100" height="400" as="geometry" />
        </mxCell>
        <mxCell id="bKLCHmG1R05d96KP2sI8-9" value="" style="points=[];perimeter=orthogonalPerimeter;rounded=0;shadow=0;strokeWidth=1;" vertex="1" parent="bKLCHmG1R05d96KP2sI8-8">
          <mxGeometry x="45" y="140" width="10" height="190" as="geometry" />
        </mxCell>
        <mxCell id="bKLCHmG1R05d96KP2sI8-10" value="" style="endArrow=classic;html=1;exitX=0.971;exitY=0.393;exitDx=0;exitDy=0;exitPerimeter=0;entryX=0.029;entryY=0.298;entryDx=0;entryDy=0;entryPerimeter=0;" edge="1" parent="1" source="3nuBFxr9cyL0pnOWT2aG-2" target="bKLCHmG1R05d96KP2sI8-9">
          <mxGeometry width="50" height="50" relative="1" as="geometry">
            <mxPoint x="410" y="270" as="sourcePoint" />
            <mxPoint x="546" y="290" as="targetPoint" />
          </mxGeometry>
        </mxCell>
        <mxCell id="bKLCHmG1R05d96KP2sI8-11" value="storeData" style="text;html=1;align=center;verticalAlign=middle;resizable=0;points=[];autosize=1;" vertex="1" parent="1">
          <mxGeometry x="430" y="260" width="70" height="20" as="geometry" />
        </mxCell>
        <mxCell id="bKLCHmG1R05d96KP2sI8-14" value="getPosition" style="text;html=1;strokeColor=none;fillColor=none;align=center;verticalAlign=middle;whiteSpace=wrap;rounded=0;" vertex="1" parent="1">
          <mxGeometry x="310" y="230" width="40" height="20" as="geometry" />
        </mxCell>
        <mxCell id="bKLCHmG1R05d96KP2sI8-16" value="return data" style="verticalAlign=bottom;endArrow=open;dashed=1;endSize=8;shadow=0;strokeWidth=1;" edge="1" parent="1" target="3nuBFxr9cyL0pnOWT2aG-1">
          <mxGeometry x="-0.0639" y="1" relative="1" as="geometry">
            <mxPoint x="280" y="290" as="targetPoint" />
            <mxPoint x="276" y="402" as="sourcePoint" />
            <Array as="points">
              <mxPoint x="310" y="402" />
            </Array>
            <mxPoint as="offset" />
          </mxGeometry>
        </mxCell>
        <mxCell id="bKLCHmG1R05d96KP2sI8-17" value="" style="endArrow=classic;html=1;exitX=0.009;exitY=0.745;exitDx=0;exitDy=0;exitPerimeter=0;" edge="1" parent="1" target="bKLCHmG1R05d96KP2sI8-4">
          <mxGeometry width="50" height="50" relative="1" as="geometry">
            <mxPoint x="393.86249999999995" y="222.14999999999998" as="sourcePoint" />
            <mxPoint x="390.8599999999998" y="220.00000000000006" as="targetPoint" />
          </mxGeometry>
        </mxCell>
        <mxCell id="bKLCHmG1R05d96KP2sI8-18" value="getRoadCond" style="text;html=1;align=center;verticalAlign=middle;resizable=0;points=[];autosize=1;" vertex="1" parent="1">
          <mxGeometry x="285" y="200" width="90" height="20" as="geometry" />
        </mxCell>
        <mxCell id="bKLCHmG1R05d96KP2sI8-19" value="" style="endArrow=classic;html=1;entryX=0.886;entryY=0.08;entryDx=0;entryDy=0;entryPerimeter=0;" edge="1" parent="1" source="3nuBFxr9cyL0pnOWT2aG-1" target="bKLCHmG1R05d96KP2sI8-4">
          <mxGeometry width="50" height="50" relative="1" as="geometry">
            <mxPoint x="269.15" y="191.07999999999998" as="sourcePoint" />
            <mxPoint x="390.8599999999998" y="190.00000000000006" as="targetPoint" />
          </mxGeometry>
        </mxCell>
        <mxCell id="bKLCHmG1R05d96KP2sI8-20" value="getSpeed" style="text;html=1;align=center;verticalAlign=middle;resizable=0;points=[];autosize=1;" vertex="1" parent="1">
          <mxGeometry x="295" y="170" width="70" height="20" as="geometry" />
        </mxCell>
        <mxCell id="bKLCHmG1R05d96KP2sI8-24" value="" style="endArrow=classic;html=1;entryX=0.886;entryY=0.319;entryDx=0;entryDy=0;entryPerimeter=0;" edge="1" parent="1" source="3nuBFxr9cyL0pnOWT2aG-1" target="bKLCHmG1R05d96KP2sI8-4">
          <mxGeometry width="50" height="50" relative="1" as="geometry">
            <mxPoint x="269.14" y="251.07999999999998" as="sourcePoint" />
            <mxPoint x="390.8499999999998" y="250.00000000000006" as="targetPoint" />
          </mxGeometry>
        </mxCell>
        <mxCell id="bKLCHmG1R05d96KP2sI8-25" value="" style="endArrow=classic;html=1;" edge="1" parent="1" source="3nuBFxr9cyL0pnOWT2aG-1" target="bKLCHmG1R05d96KP2sI8-4">
          <mxGeometry width="50" height="50" relative="1" as="geometry">
            <mxPoint x="243.29" y="290.53999999999996" as="sourcePoint" />
            <mxPoint x="364.9999999999998" y="289.46000000000004" as="targetPoint" />
          </mxGeometry>
        </mxCell>
        <mxCell id="bKLCHmG1R05d96KP2sI8-13" value="" style="endArrow=classic;html=1;entryX=1;entryY=0.545;entryDx=0;entryDy=0;entryPerimeter=0;" edge="1" parent="1" source="3nuBFxr9cyL0pnOWT2aG-1" target="bKLCHmG1R05d96KP2sI8-4">
          <mxGeometry width="50" height="50" relative="1" as="geometry">
            <mxPoint x="450" y="250" as="sourcePoint" />
            <mxPoint x="396" y="328" as="targetPoint" />
          </mxGeometry>
        </mxCell>
        <mxCell id="bKLCHmG1R05d96KP2sI8-26" value="getAmountVeh" style="text;html=1;align=center;verticalAlign=middle;resizable=0;points=[];autosize=1;" vertex="1" parent="1">
          <mxGeometry x="285" y="270" width="90" height="20" as="geometry" />
        </mxCell>
        <mxCell id="bKLCHmG1R05d96KP2sI8-27" value="getDisOfVeh" style="text;html=1;align=center;verticalAlign=middle;resizable=0;points=[];autosize=1;" vertex="1" parent="1">
          <mxGeometry x="295" y="300" width="80" height="20" as="geometry" />
        </mxCell>
        <mxCell id="bKLCHmG1R05d96KP2sI8-28" value="User" style="shape=umlActor;verticalLabelPosition=bottom;verticalAlign=top;html=1;outlineConnect=0;" vertex="1" parent="1">
          <mxGeometry x="110" y="420" width="30" height="60" as="geometry" />
        </mxCell>
        <mxCell id="bKLCHmG1R05d96KP2sI8-32" value="Communications" style="shape=umlLifeline;perimeter=lifelinePerimeter;container=1;collapsible=0;recursiveResize=0;rounded=0;shadow=0;strokeWidth=1;" vertex="1" parent="1">
          <mxGeometry x="260" y="600" width="100" height="300" as="geometry" />
        </mxCell>
        <mxCell id="bKLCHmG1R05d96KP2sI8-33" value="" style="points=[];perimeter=orthogonalPerimeter;rounded=0;shadow=0;strokeWidth=1;" vertex="1" parent="bKLCHmG1R05d96KP2sI8-32">
          <mxGeometry x="45" y="80" width="10" height="160" as="geometry" />
        </mxCell>
      </root>
    </mxGraphModel>
  </diagram>
</mxfile>
